<svg width="24" height="24" viewBox="0 0 24 24" fill="none" xmlns="http://www.w3.org/2000/svg">
<path d="M9.13263 0.945681C10.7368 -0.265241 12.9853 -0.313246 14.6387 0.801667L14.8421 0.945681L22.5335 6.79147C23.3798 7.41433 23.8989 8.33963 23.9874 9.34653L24 9.58775V19.3195C24 21.8278 21.9145 23.868 19.3011 24H16.7874C15.5861 23.9772 14.6147 23.0891 14.5263 21.973L14.5137 21.8038V18.3726C14.5137 17.9994 14.2219 17.6886 13.8316 17.6274L13.7179 17.6154H10.344C9.94105 17.6274 9.61263 17.9034 9.56211 18.2634L9.54947 18.3726V21.793C9.54947 21.8638 9.53558 21.9478 9.52421 22.0078L9.51158 22.033L9.49768 22.1158C9.34737 23.1371 8.46316 23.916 7.36421 23.9892L7.2 24H4.93895C2.29895 24 0.138947 22.033 0 19.5596V9.58775C0.0113684 8.56645 0.48 7.61835 1.26316 6.95829L9.13263 0.945681ZM13.7432 2.25381C12.7832 1.52174 11.4189 1.48694 10.4084 2.1218L10.2177 2.25381L2.53768 8.1356C2.09684 8.44644 1.83158 8.91448 1.76842 9.40653L1.75453 9.59855V19.3195C1.75453 20.9157 3.06821 22.2238 4.73684 22.3198H7.2C7.47789 22.3198 7.71789 22.141 7.75453 21.889L7.78105 21.673L7.79368 21.6118V18.3726C7.79368 17.0885 8.82947 16.0444 10.1558 15.9472H13.7179C15.0682 15.9472 16.1672 16.9325 16.2695 18.1926V21.8038C16.2695 22.0558 16.4589 22.273 16.7116 22.3198H19.0598C20.7524 22.3198 22.1293 21.0849 22.2303 19.5116L22.2442 19.3195V9.59855C22.2303 9.0837 22.0042 8.60245 21.6126 8.24362L21.4484 8.1104L13.7432 2.25381Z" fill="#EA7C69"/>
</svg>
